<svg width="26" height="22" viewBox="0 0 26 22" fill="none" xmlns="http://www.w3.org/2000/svg">
<path d="M22.0245 1.76127C20.3414 0.938468 18.5419 0.340492 16.6605 0C16.4294 0.436499 16.1595 1.0236 15.9734 1.49064C13.9734 1.17636 11.9918 1.17636 10.0286 1.49064C9.84251 1.0236 9.56643 0.436499 9.33331 0C7.44987 0.340492 5.64824 0.940665 3.96521 1.76562C0.57053 7.12573 -0.349712 12.3527 0.11041 17.5054C2.36194 19.2623 4.54394 20.3296 6.68912 21.0279C7.21878 20.2662 7.69116 19.4566 8.09811 18.6032C7.32306 18.2955 6.58074 17.9158 5.87933 17.4749C6.06541 17.3309 6.24743 17.1803 6.42328 17.0253C10.7014 19.1161 15.3496 19.1161 19.5766 17.0253C19.7545 17.1803 19.9365 17.3309 20.1206 17.4749C19.4171 17.9179 18.6727 18.2977 17.8977 18.6054C18.3046 19.4566 18.775 20.2684 19.3067 21.0301C21.4539 20.3317 23.638 19.2645 25.8895 17.5054C26.4294 11.5321 24.9672 6.35313 22.0245 1.76127ZM8.68094 14.3365C7.3967 14.3365 6.34351 13.0838 6.34351 11.5583C6.34351 10.0327 7.37421 8.77784 8.68094 8.77784C9.98771 8.77784 11.0409 10.0305 11.0184 11.5583C11.0204 13.0838 9.98771 14.3365 8.68094 14.3365ZM17.319 14.3365C16.0347 14.3365 14.9815 13.0838 14.9815 11.5583C14.9815 10.0327 16.0122 8.77784 17.319 8.77784C18.6257 8.77784 19.6789 10.0305 19.6564 11.5583C19.6564 13.0838 18.6257 14.3365 17.319 14.3365Z" fill="#5865F2"/>
</svg>
