<svg width="23" height="21" viewBox="0 0 23 21" fill="none" xmlns="http://www.w3.org/2000/svg">
<path d="M23 2.49098C22.1542 2.91193 21.2456 3.19635 20.2904 3.32491C21.276 2.66254 22.0133 1.62005 22.3649 0.391954C21.4389 1.00971 20.4254 1.44453 19.3686 1.67754C18.6579 0.825258 17.7165 0.260353 16.6907 0.0705279C15.6648 -0.119297 14.6119 0.0765775 13.6953 0.627742C12.7787 1.17891 12.0498 2.05452 11.6217 3.11865C11.1936 4.18277 11.0903 5.37587 11.3278 6.5127C9.4515 6.40689 7.61598 5.85916 5.94036 4.90504C4.26474 3.95093 2.78646 2.61176 1.60147 0.974449C1.19629 1.75945 0.963314 2.6696 0.963314 3.63891C0.962862 4.51151 1.15419 5.37074 1.52031 6.14037C1.88644 6.91001 2.41604 7.56624 3.06214 8.05085C2.31284 8.02408 1.58007 7.79668 0.924822 7.38758V7.45584C0.924746 8.6797 1.30167 9.86589 1.99164 10.8132C2.68161 11.7604 3.64213 12.4104 4.71021 12.6528C4.01511 12.8641 3.28635 12.8952 2.57897 12.7438C2.88032 13.7969 3.46732 14.7177 4.25779 15.3775C5.04827 16.0372 6.00265 16.4028 6.98732 16.4231C5.31578 17.8969 3.25145 18.6963 1.1264 18.6928C0.749968 18.6929 0.373855 18.6682 0 18.6188C2.15705 20.1765 4.66801 21.0032 7.23245 21C15.9134 21 20.6591 12.9247 20.6591 5.92111C20.6591 5.69357 20.654 5.46376 20.6449 5.23622C21.568 4.48645 22.3648 3.55801 22.998 2.4944L23 2.49098Z" fill="#38B1D7"/>
</svg>
